Coordinates
version=1
nRows=11
nColumns=63
inDegrees=yes

Units are S.I. units (second, meters, Newtons, ...)
If the header above contains a line with 'inDegrees', this indicates whether rotational values are in degrees (yes) or radians (no).

endheader
time	pelvis_tilt	pelvis_list	pelvis_rotation	pelvis_tx	pelvis_ty	pelvis_tz	hip_flexion_r	hip_adduction_r	hip_rotation_r	knee_angle_r	knee_angle_r_beta	ankle_angle_r	subtalar_angle_r	mtp_angle_r	hip_flexion_l	hip_adduction_l	hip_rotation_l	knee_angle_l	knee_angle_l_beta	ankle_angle_l	subtalar_angle_l	mtp_angle_l	L5_S1_Flex_Ext	L5_S1_Lat_Bending	L5_S1_axial_rotation	L4_L5_Flex_Ext	L4_L5_Lat_Bending	L4_L5_axial_rotation	L3_L4_Flex_Ext	L3_L4_Lat_Bending	L3_L4_axial_rotation	L2_L3_Flex_Ext	L2_L3_Lat_Bending	L2_L3_axial_rotation	L1_L2_Flex_Ext	L1_L2_Lat_Bending	L1_L2_axial_rotation	L1_T12_Flex_Ext	L1_T12_Lat_Bending	L1_T12_axial_rotation	Abs_r3	Abs_r2	Abs_r1	Abs_t1	Abs_t2	neck_flexion	neck_bending	neck_rotation	arm_flex_r	arm_add_r	arm_rot_r	elbow_flex_r	pro_sup_r	wrist_flex_r	wrist_dev_r	arm_flex_l	arm_add_l	arm_rot_l	elbow_flex_l	pro_sup_l	wrist_flex_l	wrist_dev_l
      2.95000000	     -0.43383135	      1.21684763	     92.20833532	      0.21658918	      0.77628198	      0.71217776	     -1.81499167	      6.90839211	      7.93238703	      7.96897588	      0.13908487	     22.73896739	    -14.04654025	      0.00000000	      0.68370804	     -4.37099279	      7.37608509	      9.54565192	      0.16660306	     30.93371665	     -8.82260744	      0.00000000	     -0.08139054	      0.26898172	     -2.47896737	     -0.15115037	      0.35774569	     -2.63390283	     -0.13371651	      0.65400216	     -2.63390283	     -0.09302124	      0.65400216	     -2.16909645	     -0.07557925	      0.54850753	     -2.01416099	     -0.04650655	      0.41665269	     -1.85922553	     -0.58136447	      3.04277504	    -13.78727284	      0.00000000	      0.00000000	     20.66799621	      2.29701040	      5.29799168	      7.40821499	    -15.93422954	     55.62384272	     37.01197786	     70.69811469	      8.75018422	      7.77089905	      0.83091692	    -17.40919280	     54.95310095	     28.53974246	     66.71191472	     -0.16022706	     -9.30566775
      2.96666667	     -0.25382523	      1.30886617	     92.20193682	      0.21631244	      0.77591753	      0.71224410	     -1.88010264	      7.10902554	      8.13452459	      7.93345724	      0.13846495	     23.05774474	    -13.99941202	      0.00000000	      0.57435821	     -4.55627579	      7.44760647	      9.59611526	      0.16748381	     31.00958153	     -8.75749111	      0.00000000	     -0.08599550	      0.28294583	     -2.50044127	     -0.15970224	      0.37631795	     -2.65671885	     -0.14128200	      0.68795449	     -2.65671885	     -0.09828425	      0.68795449	     -2.18788611	     -0.07985542	      0.57698313	     -2.03160853	     -0.04913783	      0.43828309	     -1.87533095	     -0.61425723	      3.20073981	    -13.90670421	      0.00000000	      0.00000000	     20.46799990	      2.05974345	      4.71789354	      7.55242935	    -15.72545662	     56.54891150	     36.43581176	     69.59793168	     10.25756057	      8.47586922	      0.98121065	    -17.25052118	     54.87605434	     28.28756919	     67.06090038	      0.28918161	     -8.54732696
      2.98333333	     -0.12942497	      1.34993891	     92.18520836	      0.21622406	      0.77536150	      0.71197897	     -1.94368457	      7.28186652	      8.20579687	      7.85433707	      0.13708404	     23.08190327	    -14.22959840	      0.00000000	      0.49830843	     -4.63918703	      8.17086140	      9.70421728	      0.16937054	     30.86581367	     -9.65855869	      0.00000000	     -0.08479592	      0.28312794	     -2.52227725	     -0.15747450	      0.37656017	     -2.67991958	     -0.13931122	      0.68839728	     -2.67991958	     -0.09691326	      0.68839728	     -2.20699260	     -0.07874149	      0.57735450	     -2.04935027	     -0.04845239	      0.43856519	     -1.89170794	     -0.60568877	      3.20279993	    -14.02814940	      0.00000000	      0.00000000	     20.49356811	      1.86410796	      4.09393424	      8.45498020	    -15.80288428	     61.35759513	     35.75868306	     61.66451923	     10.73568003	      8.34660490	      0.24312072	    -16.99680616	     51.14024489	     28.63343751	     70.07432301	      1.42562019	     -7.12281585
      3.00000000	      0.01078803	      1.34919195	     92.22610607	      0.21612133	      0.77481242	      0.71139096	     -2.00967359	      7.45531186	      8.34280991	      7.76250857	      0.13548133	     23.13430890	    -14.26065179	      0.00000000	      0.46067630	     -4.79130586	      8.47567024	      9.83048021	      0.17157425	     30.88751454	     -9.74410056	      0.00000000	     -0.07548701	      0.28118059	     -2.46420143	     -0.14018692	      0.37397018	     -2.61821402	     -0.12401761	      0.68366249	     -2.61821402	     -0.08627410	      0.68366249	     -2.15617625	     -0.07009724	      0.57338346	     -2.00216366	     -0.04313328	      0.43554873	     -1.84815107	     -0.53919615	      3.18077107	    -13.70514910	      0.00000000	      0.00000000	     20.47901874	      1.23555833	      2.61782015	      7.90677603	    -15.59437184	     61.00539539	     35.45628174	     60.89242057	     11.54166582	      8.42132309	      0.15932082	    -16.88476977	     50.57902078	     28.84809881	     69.74933867	      1.72461834	     -6.67890705
      3.01666667	      0.11104681	      1.36015938	     92.25331213	      0.21603706	      0.77425653	      0.71059379	     -2.09164865	      7.58951873	      8.55877774	      7.70889975	      0.13454568	     23.25268390	    -14.39115966	      0.00000000	      0.39234677	     -4.88483815	      8.97602351	      9.94939315	      0.17364967	     30.96733265	    -10.12952448	      0.00000000	     -0.06425781	      0.27463301	     -2.38918896	     -0.11933318	      0.36526190	     -2.53851327	     -0.10556916	      0.66774269	     -2.53851327	     -0.07344025	      0.66774269	     -2.09054034	     -0.05966981	      0.56003163	     -1.94121603	     -0.03671691	      0.42540653	     -1.79189172	     -0.45898713	      3.10670350	    -13.28795222	      0.00000000	      0.00000000	     20.42978678	      0.66086065	      1.28838619	      7.31582362	    -15.39922962	     60.47100370	     35.18499149	     59.78807413	     12.49940626	      8.65695477	      0.03090758	    -16.84706155	     49.85341340	     29.34409740	     69.50157684	      2.26895429	     -6.13755501
      3.03333333	      0.20774855	      1.45076457	     92.32297863	      0.21600746	      0.77391529	      0.70958674	     -2.31537724	      7.71743655	      8.56415218	      7.56720383	      0.13207262	     23.39149902	    -14.29317789	      0.00000000	      0.22006538	     -5.00368859	      9.31095699	     10.02176773	      0.17491284	     31.09636320	    -10.25679206	      0.00000000	     -0.05984427	      0.26781487	     -2.33854381	     -0.11113680	      0.35619378	     -2.48470280	     -0.09831816	      0.65116508	     -2.48470280	     -0.06839602	      0.65116508	     -2.04622583	     -0.05557139	      0.54612809	     -1.90006684	     -0.03419502	      0.41484524	     -1.75390786	     -0.42746167	      3.02957539	    -13.00627910	      0.00000000	      0.00000000	     20.28479661	      0.18072057	      0.34412797	      6.87495048	    -15.35719430	     60.34124814	     35.23439740	     59.27931690	     12.91269966	      8.72628835	     -0.19106356	    -16.89864841	     49.21653198	     29.98879106	     69.26730184	      2.60722418	     -6.32645471
      3.05000000	      0.23032813	      1.46584746	     92.44219875	      0.21577064	      0.77347811	      0.70839519	     -2.40222061	      7.77878092	      8.80374505	      7.60961909	      0.13281291	     23.47606410	    -14.70858631	      0.00000000	      0.19357514	     -4.92497647	     10.69572274	     10.23003162	      0.17854773	     30.97707184	    -11.96938004	      0.00000000	     -0.03293682	      0.25178262	     -2.31800343	     -0.06116697	      0.33487088	     -2.46287864	     -0.05411190	      0.61218425	     -2.46287864	     -0.03764349	      0.61218425	     -2.02825300	     -0.03058513	      0.51343511	     -1.88337779	     -0.01882010	      0.39001127	     -1.73850257	     -0.23526442	      2.84821532	    -12.89203968	      0.00000000	      0.00000000	     19.91254622	     -0.02705407	     -0.56022305	      6.44950983	    -15.30246309	     60.02768425	     35.28641842	     59.14585003	     13.44690023	      8.88283402	     -1.10550055	    -16.75395084	     45.53021216	     31.05104788	     71.99153431	      3.83730050	     -5.64202699
      3.06666667	      0.18939041	      1.44800543	     92.48269337	      0.21552680	      0.77325910	      0.70744427	     -2.31079134	      7.70782302	      8.07998869	      7.96944326	      0.13909302	     23.90485563	    -13.93209008	      0.00000000	      0.27606067	     -4.89545457	     10.25885084	     10.52164402	      0.18363733	     31.32512896	    -11.39834900	      0.00000000	      0.00950436	      0.23650938	     -2.26775540	      0.01765054	      0.31455748	     -2.40949011	      0.01561471	      0.57504891	     -2.40949011	      0.01086253	      0.57504891	     -1.98428598	      0.00882575	      0.48228993	     -1.84255126	      0.00543079	      0.36635303	     -1.70081655	      0.06788868	      2.67544143	    -12.61257522	      0.00000000	      0.00000000	     19.44069378	     -0.03474584	     -0.67519428	      6.16728747	    -15.41727536	     60.18510609	     35.48750862	     58.93246437	     13.25563360	      8.83978896	     -1.24269209	    -16.78129851	     45.46221406	     31.66658660	     71.46661911	      3.87581708	     -5.51488668
      3.08333333	      0.15043214	      1.89602872	     92.71070034	      0.21534980	      0.77361829	      0.70614060	     -3.15831256	      7.72386052	      8.47239094	      7.54018309	      0.13160102	     23.35409860	    -14.74955148	      0.00000000	     -0.38179953	     -4.89618192	     10.86376643	     10.31642876	      0.18005565	     31.48347281	    -11.58232238	      0.00000000	     -0.00443514	      0.20030177	     -2.25072492	     -0.00823650	      0.26640135	     -2.39139522	     -0.00728649	      0.48701371	     -2.39139522	     -0.00506892	      0.48701371	     -1.96938430	     -0.00411847	      0.40845536	     -1.82871399	     -0.00253424	      0.31026743	     -1.68804369	     -0.03167975	      2.26585363	    -12.51785676	      0.00000000	      0.00000000	     18.23235729	      0.11710292	     -2.03529567	      5.93526160	    -15.50597411	     60.18579174	     35.78557866	     59.47086092	     13.21984370	      8.40011734	     -1.81576160	    -17.10235551	     44.20803900	     32.78185619	     71.63278603	      4.43425365	     -6.44909066
      3.10000000	      0.21651628	      2.16041264	     92.62542731	      0.21558906	      0.77372091	      0.70506864	     -3.39258177	      7.80959973	      7.71656091	      7.95746925	      0.13888404	     23.38062683	    -14.21661567	      0.00000000	     -0.67890086	     -5.01782760	     10.61117435	     10.55662751	      0.18424791	     31.89929986	    -11.17700423	      0.00000000	      0.02059967	      0.18544668	     -2.20960360	      0.03825565	      0.24664409	     -2.34770383	      0.03384320	      0.45089507	     -2.34770383	      0.02354336	      0.45089507	     -1.93340315	      0.01912885	      0.37816288	     -1.79530293	      0.01177065	      0.28725691	     -1.65720270	      0.14714138	      2.09780998	    -12.28915236	      0.00000000	      0.00000000	     17.02849994	      0.27638956	     -2.25662982	      5.73260513	    -15.78472921	     60.27667096	     36.27219636	     59.53423502	     13.15329943	      8.21862990	     -2.15471857	    -17.41119894	     44.03904400	     33.72993585	     71.43655582	      4.62826407	     -6.45905622
      3.11666667	      0.05533913	      2.54740096	     92.86867343	      0.21548768	      0.77428896	      0.70393742	     -4.02624117	      7.72970477	      8.29666306	      7.87350101	      0.13741852	     22.60283491	    -15.68009928	      0.00000000	     -1.21780988	     -4.87216459	     11.30656917	     10.48672302	      0.18302784	     31.59125022	    -11.65447780	      0.00000000	      0.04392813	      0.12563839	     -2.24221105	      0.08157893	      0.16709906	     -2.38234924	      0.07216952	      0.30547719	     -2.38234924	      0.05020546	      0.30547719	     -1.96193467	      0.04079166	      0.25620181	     -1.82179648	      0.02510053	      0.19461387	     -1.68165829	      0.31377423	      1.42124662	    -12.47050519	      0.00000000	      0.00000000	     15.04277709	      0.44940077	     -3.56844409	      5.43066628	    -15.76093577	     60.09939974	     36.65014458	     61.06296021	     12.09079376	      7.62968513	     -2.84570034	    -17.70530404	     42.51155087	     34.70701073	     72.73423407	      4.88528495	     -5.92927043
